<?xml version="1.0" ?>
<!-- Uploaded to: SVG Repo, www.svgrepo.com, Generator: SVG Repo Mixer Tools -->
<svg width="800px" height="800px" viewBox="0 0 32 32" xmlns="http://www.w3.org/2000/svg">
<defs>
<style>.cls-1{fill:#5233ff;}</style>
</defs>
<title/>
<g data-name="Layer 2" id="Layer_2">
<path class="cls-1" d="M18,11a1,1,0,0,1-1,1,5,5,0,0,0-5,5,1,1,0,0,1-2,0,5,5,0,0,0-5-5,1,1,0,0,1,0-2,5,5,0,0,0,5-5,1,1,0,0,1,2,0,5,5,0,0,0,5,5A1,1,0,0,1,18,11Z"/>
<path class="cls-1" d="M19,24a1,1,0,0,1-1,1,2,2,0,0,0-2,2,1,1,0,0,1-2,0,2,2,0,0,0-2-2,1,1,0,0,1,0-2,2,2,0,0,0,2-2,1,1,0,0,1,2,0,2,2,0,0,0,2,2A1,1,0,0,1,19,24Z"/>
<path class="cls-1" d="M28,17a1,1,0,0,1-1,1,4,4,0,0,0-4,4,1,1,0,0,1-2,0,4,4,0,0,0-4-4,1,1,0,0,1,0-2,4,4,0,0,0,4-4,1,1,0,0,1,2,0,4,4,0,0,0,4,4A1,1,0,0,1,28,17Z"/>
</g>
</svg>